<svg xmlns="http://www.w3.org/2000/svg" width="73" height="73" viewBox="0 0 73 73">
  <g id="creatives" transform="translate(0 -45)">
    <path id="creatives-2" data-name="creatives" d="M7.013,38.66a10.3,10.3,0,0,1-1.448-.072A3.374,3.374,0,0,1,3.494,32.8,7.515,7.515,0,0,0,6,26.772,10.831,10.831,0,0,1,.743,13.74,10.136,10.136,0,0,1,3.306,9.7a10.918,10.918,0,0,1,11.41-2.766A12.207,12.207,0,0,1,22.9,16.708a18.462,18.462,0,0,1-1.781,11.729v.116C16.657,35.561,12.4,38.66,7.013,38.66Zm-.536-3.635c3.2.159,6.806-.927,11.468-8.341a14.958,14.958,0,0,0,1.448-9.267A8.688,8.688,0,0,0,13.6,10.366a7.24,7.24,0,0,0-7.689,1.882,6.588,6.588,0,0,0-1.651,2.664A7.24,7.24,0,0,0,8.389,23.89a1.81,1.81,0,0,1,1.1,1.318,10.875,10.875,0,0,1-3.012,9.818ZM19.51,27.6ZM34.077,38.66a10.2,10.2,0,0,1-1.448-.072A3.374,3.374,0,0,1,30.558,32.8a7.515,7.515,0,0,0,2.505-6.024A10.846,10.846,0,0,1,27.807,13.74a10.266,10.266,0,0,1,2.52-4.04A10.933,10.933,0,0,1,41.766,6.934a12.178,12.178,0,0,1,8.181,9.774,18.462,18.462,0,0,1-1.781,11.729.854.854,0,0,1,0,.116C43.72,35.561,39.449,38.66,34.077,38.66Zm-.55-3.635c3.215.159,6.806-.927,11.483-8.341a14.784,14.784,0,0,0,1.448-9.267.522.522,0,0,0,0-.145,8.543,8.543,0,0,0-5.792-6.907,7.24,7.24,0,0,0-7.689,1.882,6.4,6.4,0,0,0-1.607,2.664A7.24,7.24,0,0,0,35.5,23.89a1.825,1.825,0,0,1,1.086,1.318,10.846,10.846,0,0,1-3.055,9.818ZM46.559,27.6Z" transform="translate(10.816 58.66)" fill="#4680c0" stroke="#fff" stroke-width="1.5"/>
    <rect id="Rectangle_202" data-name="Rectangle 202" width="73" height="73" transform="translate(0 45)" fill="none"/>
  </g>
</svg>
