<svg xmlns="http://www.w3.org/2000/svg" width="73" height="73" viewBox="0 0 73 73">
  <g id="EventsXp" transform="translate(0 -45)">
    <path id="EventsXp-2" data-name="EventsXp" d="M39.428,30.666a10.953,10.953,0,0,0-8.764-10.734l0-7.885v-.12a.3.3,0,0,0,0-.1L28.476.876A1.1,1.1,0,0,0,27.38,0H5.345a1.1,1.1,0,0,0-.274.055l-.153.12A1.183,1.183,0,0,0,4.7.35H4.633a.8.8,0,0,0-.055.1s-.066,0-.077.1L.121,9.309h0A1.1,1.1,0,0,0,0,9.747a.142.142,0,0,1,0,.11V42.713a1.1,1.1,0,0,0,.745,1.1L7.316,46a1.3,1.3,0,0,0,.35,0h21.9a1.1,1.1,0,0,0,1.1-1.1V41.4a10.952,10.952,0,0,0,8.762-10.733ZM26.482,2.19l1.752,8.762H8.521L6.812,2.19ZM6.221,10.416,2.64,9.222,5.027,4.436Zm-4.03.964,4.381,1.457V43.381L2.191,41.925ZM28.476,43.809H8.762V13.143H28.476v6.571a10.952,10.952,0,0,0,0,21.9Zm0-4.381a8.762,8.762,0,1,1,8.762-8.762A8.762,8.762,0,0,1,28.476,39.428ZM32.857,27.38H24.095a1.1,1.1,0,0,0-1.1,1.1v2.19a5.476,5.476,0,0,0,10.952,0v-2.19A1.1,1.1,0,0,0,32.857,27.38Zm-1.1,3.286a3.286,3.286,0,1,1-6.571,0v-1.1h6.571ZM15.333,6.571a2.19,2.19,0,1,1,2.19,2.19A2.19,2.19,0,0,1,15.333,6.571Z" transform="translate(17.002 58)" fill="#4680c0"/>
    <rect id="Rectangle_201" data-name="Rectangle 201" width="73" height="73" transform="translate(0 45)" fill="none"/>
  </g>
</svg>
