<svg xmlns="http://www.w3.org/2000/svg" width="73" height="73" viewBox="0 0 73 73">
  <g id="leads270" transform="translate(4.838 4.691)">
    <rect id="Rectangle_200" data-name="Rectangle 200" width="73" height="73" transform="translate(-4.838 -4.691)" fill="none"/>
    <line id="Line_12" data-name="Line 12" x2="0.62" transform="translate(49.165 25.378)" fill="none" stroke="#4680c0" stroke-linecap="round" stroke-linejoin="round" stroke-miterlimit="10" stroke-width="2"/>
    <path id="Path_16" data-name="Path 16" d="M51.872,25.441h1.515l.058-3.53L33.652,11.3a5.729,5.729,0,0,0-5.381-.01L8.468,21.8,8.39,25.441H46.822M15.412,53.4V31.772a5.791,5.791,0,0,0,1.292-.914l.505-.486-.01-1.2H8.759l.01,1.225.5.467a5.525,5.525,0,0,0,1.282.914V53.39a5.394,5.394,0,0,0-1.03.681l-.748.632-.01,1.079h8.43l.01-1.05-.758-.642A5.447,5.447,0,0,0,15.412,53.4Zm12.811,0V31.772a5.577,5.577,0,0,0,1.292-.914l.505-.486-.01-1.2h-8.43L21.6,30.4l.486.467a5.525,5.525,0,0,0,1.282.914V53.39a5.394,5.394,0,0,0-1.03.681l-.748.632-.019,1.079H30l.01-1.05-.758-.642A5.447,5.447,0,0,0,28.223,53.4Zm23.106-7.08V31.772a5.791,5.791,0,0,0,1.292-.914l.505-.486-.01-1.2h-8.43l.01,1.225.5.467a5.525,5.525,0,0,0,1.282.914V53.39a5.394,5.394,0,0,0-1.03.681l-.748.632-.01,1.079h8.43l.01-1.05-.758-.642a5.394,5.394,0,0,0-1.03-.681V52.223" fill="none" stroke="#4680c0" stroke-linecap="round" stroke-linejoin="round" stroke-miterlimit="10" stroke-width="2"/>
    <line id="Line_13" data-name="Line 13" y1="0.95" transform="translate(51.265 48.622)" fill="none" stroke="#4680c0" stroke-linecap="round" stroke-linejoin="round" stroke-miterlimit="10" stroke-width="2"/>
    <path id="Path_17" data-name="Path 17" d="M33.13,15.88H29.74l-1.69,2.93,1.69,2.93h3.39l1.69-2.93Z" transform="translate(-0.651 -0.258)" fill="none" stroke="#4680c0" stroke-linecap="round" stroke-linejoin="round" stroke-miterlimit="10" stroke-width="2"/>
    <path id="Path_18" data-name="Path 18" d="M5.83,19.5,27.1,7.944a8.185,8.185,0,0,1,7.952.068l21.79,12.357M39.908,53.395V31.722a5.81,5.81,0,0,0,1.3-.916l.507-.487-.01-1.2H33.243l.01,1.228.5.468a5.544,5.544,0,0,0,1.286.916V53.385A5.413,5.413,0,0,0,34,54.067l-.75.633-.01,1.082H41.7l.01-1.052-.76-.643A5.533,5.533,0,0,0,39.908,53.395Z" fill="none" stroke="#4680c0" stroke-linecap="round" stroke-linejoin="round" stroke-miterlimit="10" stroke-width="2"/>
  </g>
</svg>
