<svg xmlns="http://www.w3.org/2000/svg" width="581.697" height="62.824" viewBox="0 0 581.697 62.824">
  <g id="Netnex_footer_logo" transform="translate(-138.363 -170.749)">
    <g id="Group_1246" data-name="Group 1246" transform="translate(496.817 159.474)">
      <path id="Path_4717" data-name="Path 4717" d="M-181.5-32.5l5.574.03v17.9h3.605V-32.5l5.6.03v-3.3H-181.5Zm18.813,8.179,15.117.03v-3.272l-15.117-.03Zm12.815-11.451v21.206h3.575V-35.769Zm-14.238,0v21.206h3.575V-35.769Zm24.72,21.206h10.724l-.03-3.12-10.664-.03Zm0-18.086,10.724.03-.03-3.151h-10.664Zm0,8.27h10.118l-.03-3.09h-10.058Zm-2.181-11.391v21.206h3.484l.03-21.206Zm26.386,0v21.206h3.575V-35.769Zm2.121,3.151h4.272a4.736,4.736,0,0,1,2.969.863,3.031,3.031,0,0,1,1.121,2.56,3.074,3.074,0,0,1-1.121,2.575,4.679,4.679,0,0,1-2.969.879h-4.272v3.151h4.272a9.367,9.367,0,0,0,4.014-.8,6.13,6.13,0,0,0,2.651-2.287,6.434,6.434,0,0,0,.939-3.514,6.358,6.358,0,0,0-.939-3.5,6.165,6.165,0,0,0-2.651-2.272,9.366,9.366,0,0,0-4.014-.8h-4.272ZM-95.1-25.166a8.064,8.064,0,0,1,.924-3.893,6.815,6.815,0,0,1,2.56-2.681,7.169,7.169,0,0,1,3.726-.969,7.206,7.206,0,0,1,3.772.969,6.742,6.742,0,0,1,2.53,2.681,8.172,8.172,0,0,1,.909,3.893,8.063,8.063,0,0,1-.924,3.893,6.849,6.849,0,0,1-2.545,2.681,7.147,7.147,0,0,1-3.741.969,7.169,7.169,0,0,1-3.726-.969,6.815,6.815,0,0,1-2.56-2.681A8.064,8.064,0,0,1-95.1-25.166Zm-3.787,0a11.642,11.642,0,0,0,.818,4.393,10.527,10.527,0,0,0,2.287,3.514,10.436,10.436,0,0,0,3.5,2.318,11.456,11.456,0,0,0,4.393.833,11.423,11.423,0,0,0,4.408-.833,10.641,10.641,0,0,0,3.5-2.318,10.412,10.412,0,0,0,2.3-3.514,11.643,11.643,0,0,0,.818-4.393,11.5,11.5,0,0,0-.818-4.393A10.21,10.21,0,0,0-80-33.027a10.774,10.774,0,0,0-3.5-2.287,11.494,11.494,0,0,0-4.393-.818,11.446,11.446,0,0,0-4.347.818,10.734,10.734,0,0,0-3.514,2.287,10.21,10.21,0,0,0-2.318,3.469A11.494,11.494,0,0,0-98.887-25.166ZM-76.409-32.5l5.574.03v17.9h3.605V-32.5l5.6.03v-3.3H-76.409Zm19.57,17.934h10.724l-.03-3.12-10.664-.03Zm0-18.086,10.724.03-.03-3.151H-56.809Zm0,8.27h10.118l-.03-3.09H-56.809ZM-59.02-35.769v21.206h3.484l.03-21.206Zm32.778,0V-21.53l-15.48-15.3v22.266h3.514V-28.8l15.48,15.3V-35.769Zm6.089,3.272,5.574.03v17.9h3.605V-32.5l5.6.03v-3.3H-20.152Zm17.389-3.272v21.206H.842V-35.769ZM8.112-20.015H19.321l-.7-3.029H8.779Zm5.544-9.755,3.363,7.877.091.879,2.878,6.453h4.029L13.656-36.95,3.3-14.562H7.325L10.263-21.2l.061-.788Zm12.814-6v21.206H38.437l.03-3.211H30.045V-35.769Z" transform="translate(184.777 85.113)" fill="#fff"/>
      <path id="Path_4774" data-name="Path 4774" d="M-96.408-24.5V0h5.915V-24.5Zm3.71,4.865H-87.9a4.394,4.394,0,0,1,2.8.805,2.815,2.815,0,0,1,1.015,2.345,2.775,2.775,0,0,1-1.015,2.31,4.394,4.394,0,0,1-2.8.805H-92.7v4.865H-87.9a12.627,12.627,0,0,0,5.232-.962,6.989,6.989,0,0,0,3.2-2.765,8.088,8.088,0,0,0,1.085-4.252,8.135,8.135,0,0,0-1.085-4.305,7.023,7.023,0,0,0-3.2-2.747A12.627,12.627,0,0,0-87.9-24.5H-92.7Zm22.96,7.385a8.244,8.244,0,0,1,.857-3.832,6.433,6.433,0,0,1,2.415-2.608,6.913,6.913,0,0,1,3.658-.945,6.89,6.89,0,0,1,3.675.945,6.352,6.352,0,0,1,2.38,2.608,8.387,8.387,0,0,1,.84,3.832,8.244,8.244,0,0,1-.857,3.833A6.433,6.433,0,0,1-59.185-5.81a6.845,6.845,0,0,1-3.622.945,6.913,6.913,0,0,1-3.658-.945A6.433,6.433,0,0,1-68.88-8.418,8.244,8.244,0,0,1-69.738-12.25Zm-6.265,0a13.784,13.784,0,0,0,.962,5.215,12.154,12.154,0,0,0,2.73,4.13A12.391,12.391,0,0,0-68.128-.193a14.247,14.247,0,0,0,5.32.963,14.149,14.149,0,0,0,5.285-.963A12.391,12.391,0,0,0-53.34-2.905a12.154,12.154,0,0,0,2.73-4.13,13.784,13.784,0,0,0,.963-5.215,13.306,13.306,0,0,0-.98-5.18,11.955,11.955,0,0,0-2.765-4.06,12.449,12.449,0,0,0-4.183-2.642,14.382,14.382,0,0,0-5.232-.927,14.423,14.423,0,0,0-5.215.927,12.41,12.41,0,0,0-4.2,2.642,12.169,12.169,0,0,0-2.783,4.06A13.1,13.1,0,0,0-76-12.25Zm51.835,1.715-6.72-15.19-6.65,15.19L-42.368-24.5h-7L-38.763,1.435l7.875-14.77,7.91,14.77L-12.373-24.5h-7.035ZM-5.723,0H6.632V-4.865H-5.723Zm0-19.635H6.632V-24.5H-5.723Zm0,9.135H5.932v-4.725L-5.723-15.26Zm-3.92-14V0h5.67V-24.5ZM17.587-11.1,24.447,0h6.93L23.712-11.1ZM11.462-24.5V0h5.915V-24.5Zm3.71,5.005h4.8a4.971,4.971,0,0,1,2.048.385,2.923,2.923,0,0,1,1.313,1.1,3.169,3.169,0,0,1,.455,1.733,3.169,3.169,0,0,1-.455,1.733,2.819,2.819,0,0,1-1.312,1.085,5.178,5.178,0,0,1-2.048.368h-4.8v4.585h5.215a12.033,12.033,0,0,0,5.25-1.015,7.315,7.315,0,0,0,3.185-2.818,7.884,7.884,0,0,0,1.085-4.148,7.951,7.951,0,0,0-1.085-4.183,7.315,7.315,0,0,0-3.185-2.817,12.033,12.033,0,0,0-5.25-1.015H15.172ZM34.107-24.5V0h5.985l.035-24.5Zm28.1,0v13.79L45.307-25.725V0h5.67V-13.79L67.917,1.225V-24.5ZM85.243-8.855h6.51A7.507,7.507,0,0,1,90.9-7.088a6.147,6.147,0,0,1-1.312,1.435,5.563,5.563,0,0,1-1.855.945,8.222,8.222,0,0,1-2.415.333,7.51,7.51,0,0,1-3.832-.963,6.882,6.882,0,0,1-2.625-2.73,8.619,8.619,0,0,1-.963-4.183,8.058,8.058,0,0,1,1-4.148,6.81,6.81,0,0,1,2.695-2.608,7.764,7.764,0,0,1,3.728-.91,6.185,6.185,0,0,1,3.552.962,7.261,7.261,0,0,1,2.257,2.433l5.25-2.73a14.132,14.132,0,0,0-2.747-3.028,12.046,12.046,0,0,0-3.658-2.048,13.822,13.822,0,0,0-4.655-.735,15.559,15.559,0,0,0-5.39.91,13.1,13.1,0,0,0-4.34,2.59,11.513,11.513,0,0,0-2.87,4.043A13.213,13.213,0,0,0,71.7-12.25a13.674,13.674,0,0,0,1,5.3,12.228,12.228,0,0,0,2.783,4.13,12.205,12.205,0,0,0,4.235,2.66A15.11,15.11,0,0,0,85.1.77a13.182,13.182,0,0,0,5.53-1.1,11.077,11.077,0,0,0,4.025-3.062,12.888,12.888,0,0,0,2.38-4.515,15.684,15.684,0,0,0,.6-5.5H85.243Z" transform="translate(99 37)" fill="#fff"/>
    </g>
    <path id="Path_4716" data-name="Path 4716" d="M13.081,59.9H0V0L39.368,34.842V2.5H52.729l.156,60.2-39.8-34.857ZM195.363,2.5h13.081V62.7L169.076,27.858V59.9H155.559V0l39.8,34.842Zm-93.482,0V14l-24.731.156v9.97h23.176v11.2H77.15V48.545h24.731V59.9c-8.295,0-32.461.1-38.108,0V2.5Zm49.463,0V14.948h-15.85V59.9H121.65V14.948h-15.57V2.5Zm81.5,11.65v9.97l23.036-.016V35.324h-23.02l-.016,13.221H257.44L257.6,59.9s-34.962-.311-38.108-.311c.089-.016,0-57.084,0-57.084H257.44v11.65ZM263.817,2.5h16.954s8.029,16.057,9.022,16.628v-.156L298.954,2.5h17.2s-4.74,7.257-6.934,10.717c-3.668,5.785-11.028,17.125-11.028,17.125s-7.8,9.263-8.4,10.421h15.072l12.3,19.132s-10.306-.311-16.148-.311c-.639-1.518-11.4-18.51-11.4-18.51L278.9,59.9H261.8l19.443-29.242Z" transform="translate(138.363 170.874)" fill="#fff" fill-rule="evenodd"/>
    <path id="Path_4718" data-name="Path 4718" d="M2.851,58.9H-1.5V0H2.851Z" transform="translate(475.559 172.457)" fill="#fff"/>
  </g>
</svg>
