<svg xmlns="http://www.w3.org/2000/svg" width="575" height="113.669" viewBox="0 0 575 113.669">
  <path id="NetNex" d="M23.715,108.593H0V0L71.371,63.165V4.54H95.594l.282,109.129L23.715,50.476ZM354.176,4.54h23.715V113.669L306.52,50.5v58.089h-24.5V0l72.161,63.165ZM184.7,4.54V25.379l-44.836.282V43.736h42.016v20.3H139.866V88.008H184.7v20.585c-15.038,0-58.849.184-69.087,0V4.54Zm89.672,0V27.1H245.639v81.494h-25.1V27.1H192.315V4.54ZM422.135,25.661V43.736l41.762-.028V64.039H422.163l-.028,23.969h44.582L467,108.593s-63.382-.564-69.087-.564c.161-.028,0-103.489,0-103.489h68.8V25.661ZM478.278,4.54h30.737s14.556,29.11,16.355,30.144V34.4L541.979,4.54,573,5.076S564.569,17.7,560.59,23.969C553.941,34.457,540.6,55.016,540.6,55.016S526.462,71.809,525.37,73.909h27.325L575,108.593s-18.684-.564-29.275-.564c-1.159-2.752-20.665-33.556-20.665-33.556l-19.429,34.12H474.613L509.861,55.58Z" fill="#efefef" fill-rule="evenodd"/>
</svg>
