<svg xmlns="http://www.w3.org/2000/svg" width="142.24" height="28.119" viewBox="0 0 142.24 28.119">
  <path id="Path_46" data-name="Path 46" d="M5.867,26.863H0V0L17.655,15.625V1.123h5.992l.07,27L5.867,12.486ZM87.614,1.123h5.867v27L75.825,12.493v14.37H69.763V0L87.614,15.625Zm-41.924,0V6.278L34.6,6.348v4.471H44.993v5.022H34.6v5.929H45.69v5.092c-3.72,0-14.558.046-17.09,0V1.123Zm22.183,0V6.7H60.765v20.16H54.556V6.7H47.574V1.123Zm36.552,5.225v4.471l10.331-.007v5.029H104.432l-.007,5.929h11.028l.07,5.092s-15.679-.14-17.09-.14c.04-.007,0-25.6,0-25.6h17.021V6.348Zm13.888-5.225h7.6s3.6,7.2,4.046,7.457V8.51l4.109-7.387h7.714s-2.126,3.254-3.11,4.806c-1.645,2.594-4.946,7.68-4.946,7.68s-3.5,4.154-3.767,4.674h6.759l5.518,8.58s-4.622-.14-7.242-.14c-.287-.681-5.112-8.3-5.112-8.3l-4.806,8.441h-7.673l8.72-13.114Z" fill="#e9eef4" fill-rule="evenodd"/>
</svg>
