<svg xmlns="http://www.w3.org/2000/svg" width="1920" height="149.061" viewBox="0 0 1920 149.061">
  <g id="Group_62" data-name="Group 62" transform="translate(-593.949 -444.17)">
    <path id="Path_43" data-name="Path 43" d="M24.792,113.523H0V0L74.611,66.033V4.746H99.934l.295,114.083L24.792,52.767ZM370.255,4.746h24.792V118.83L320.436,52.8v60.727H294.819V0l75.437,66.033Zm-177.168,0V26.531l-46.871.295v18.9h43.924V66.947H146.215V92h46.871v21.52c-15.721,0-61.52.193-72.223,0V4.746Zm93.743,0V28.329H256.791v85.194H230.555V28.329H201.046V4.746ZM441.3,26.826v18.9l43.658-.029V66.947H441.329L441.3,92h46.606l.295,21.52s-66.26-.59-72.223-.59c.168-.029,0-108.188,0-108.188h71.929v22.08Zm58.692-22.08h32.132s15.217,30.432,17.1,31.513v-.295L566.585,4.746h32.6S590.2,18.5,586.041,25.057c-6.951,10.964-20.9,32.456-20.9,32.456S550.363,75.07,549.222,77.264h28.565L601.1,113.523s-19.532-.59-30.6-.59c-1.212-2.877-21.6-35.08-21.6-35.08l-20.311,35.669H496.16L533.008,58.1Z" transform="translate(1264.832 444.17)" fill="#e9eef4" fill-rule="evenodd"/>
    <path id="Path_44" data-name="Path 44" d="M0,0H688.487V18.952H0Z" transform="translate(593.949 538.976)" fill="#e9eef4"/>
    <path id="Path_45" data-name="Path 45" d="M7.219-.092,682.131,0V18.952L-.4,18.906Z" transform="translate(1831.818 449)" fill="#e9eef4"/>
    <path id="Path_64" data-name="Path 64" d="M1.68,0H3.066V-5.628H5.838c2.94,0,4.368-1.68,4.368-4.032,0-2.373-1.428-3.99-4.368-3.99H1.68ZM3.066-6.867v-5.544H5.775c2.1,0,2.982.945,2.982,2.751,0,1.764-.882,2.793-2.982,2.793Zm28.329.042c0,4.263,2.016,7.056,5.838,7.056s5.838-2.793,5.838-7.056c0-4.284-2.016-7.056-5.838-7.056S31.395-11.109,31.395-6.825Zm5.838,5.817c-3.066,0-4.389-2.457-4.389-5.817s1.323-5.817,4.389-5.817,4.389,2.457,4.389,5.817S40.3-1.008,37.233-1.008ZM66.948,0h1.743L71.82-9.807,75.033,0h1.743l3.15-13.65H78.519L75.852-1.617,72.7-11.508l-1.68.126L67.893-1.617,65.2-13.65H63.8ZM101.3,0h7.917l.168-1.239h-6.7V-6.258h5.544V-7.5H102.69v-4.914h6.363V-13.65H101.3Zm29.841,0h1.386V-5.964h1.7c1.029,0,1.47.462,1.995,1.428L138.726,0h1.554l-2.772-4.935a3.5,3.5,0,0,0-.966-1.218,3.693,3.693,0,0,0,3.087-3.717c0-2.247-1.344-3.78-4.326-3.78h-4.158Zm1.386-7.14v-5.271h2.73c2.1,0,2.919.924,2.919,2.583,0,1.7-.987,2.688-2.9,2.688ZM161.679,0h1.386V-13.65h-1.386ZM185.43,0h1.365V-11.256L193.725,0h1.449V-13.65h-1.365V-2.289L186.9-13.65h-1.47Zm31.647-6.8c0,4.326,2.142,7.035,6.153,7.035a7.84,7.84,0,0,0,4.809-1.617V-6.657h-3.612v1.113h2.331v3.486a6.35,6.35,0,0,1-3.486,1.05c-3.276,0-4.746-2.289-4.746-5.859s1.512-5.775,4.851-5.775a6.674,6.674,0,0,1,3.738,1.176l.651-.987a7.507,7.507,0,0,0-4.389-1.428C219.24-13.881,217.077-11.088,217.077-6.8ZM276.213,0H277.6V-12.411h3.8l.126-1.239h-9.24v1.239h3.927Zm26.481,0h1.386V-6.321h7.056V0h1.386V-13.65h-1.386v6.069H304.08V-13.65h-1.386Zm32.214,0h7.917l.168-1.239h-6.7V-6.258h5.544V-7.5h-5.544v-4.914h6.363V-13.65h-7.749Zm52.941,0h1.386V-5.628h2.772c2.94,0,4.368-1.68,4.368-4.032,0-2.373-1.428-3.99-4.368-3.99h-4.158Zm1.386-6.867v-5.544h2.709c2.1,0,2.982.945,2.982,2.751,0,1.764-.882,2.793-2.982,2.793Zm28.329.042c0,4.263,2.016,7.056,5.838,7.056s5.838-2.793,5.838-7.056c0-4.284-2.016-7.056-5.838-7.056S417.564-11.109,417.564-6.825ZM423.4-1.008c-3.066,0-4.389-2.457-4.389-5.817s1.323-5.817,4.389-5.817,4.389,2.457,4.389,5.817S426.468-1.008,423.4-1.008ZM453.705,0h1.386V-12.411h3.8l.126-1.239h-9.24v1.239h3.927Zm26.481,0H488.1l.168-1.239h-6.7V-6.258h5.544V-7.5h-5.544v-4.914h6.363V-13.65h-7.749Zm29.82,0h1.365V-11.256L518.3,0h1.449V-13.65h-1.365V-2.289L511.476-13.65h-1.47Zm34.818,0h1.386V-12.411h3.8l.126-1.239H540.9v1.239h3.927ZM571.3,0h1.386V-13.65H571.3Zm22.764,0h1.365l1.239-3.549h6.153L604.065,0h1.449l-4.83-13.65h-1.743Zm3-4.7,2.667-7.707L602.427-4.7ZM626.892,0h7.665l.168-1.239h-6.447V-13.65h-1.386Z" transform="translate(1252.949 593)" fill="#fff"/>
  </g>
</svg>
