<svg xmlns="http://www.w3.org/2000/svg" width="91" height="91" viewBox="0 0 91 91">
  <g id="_7f59fd7eca5c4dfb67076eb439d10531" data-name="7f59fd7eca5c4dfb67076eb439d10531" transform="translate(6.175 6.218)">
    <g id="Ellipse_25" data-name="Ellipse 25" transform="translate(-6.175 -6.218)" fill="#fff" stroke="#0f53a5" stroke-width="2">
      <circle cx="45.5" cy="45.5" r="45.5" stroke="none"/>
      <circle cx="45.5" cy="45.5" r="44.5" fill="none"/>
    </g>
    <path id="Path_69" data-name="Path 69" d="M0,0H55.854V55.854H0Z" transform="translate(11.377 11.377)" fill="none"/>
    <path id="Path_70" data-name="Path 70" d="M29.9,27.253a5.223,5.223,0,0,0-3.515,1.381L13.6,21.191a5.871,5.871,0,0,0,.161-1.255A5.871,5.871,0,0,0,13.6,18.68l12.644-7.371a5.369,5.369,0,1,0-1.722-3.928,5.871,5.871,0,0,0,.161,1.255L12.039,16.008a5.381,5.381,0,1,0,0,7.856l12.77,7.461a5.06,5.06,0,0,0-.143,1.166A5.237,5.237,0,1,0,29.9,27.253Z" transform="translate(17.319 19.44)" fill="#0f53a5"/>
  </g>
</svg>
