<svg xmlns="http://www.w3.org/2000/svg" width="73" height="73" viewBox="0 0 73 73">
  <g id="strategyplanning" transform="translate(1.385 0.113)">
    <rect id="Rectangle_199" data-name="Rectangle 199" width="73" height="73" transform="translate(-1.385 -0.113)" fill="none"/>
    <path id="Path_12" data-name="Path 12" d="M50.8,39.19,38.809,51.18a4.415,4.415,0,0,1-6.786-.655L23.561,37.95a4.406,4.406,0,0,1,.541-5.58l7.187-7.187a4.414,4.414,0,0,1,5.353-.69l13.265,7.772A4.408,4.408,0,0,1,50.8,39.19Z" transform="translate(1.634 5.463)" fill="none" stroke="#0a57a7" stroke-linecap="round" stroke-linejoin="round" stroke-miterlimit="10" stroke-width="2"/>
    <path id="Path_13" data-name="Path 13" d="M22.115,38.68,17.39,41.7a3.748,3.748,0,0,0-1.651,3.877l1.563,7.93a3.743,3.743,0,0,0,4.663,2.882l10.3-2.838" transform="translate(2.539 3.589)" fill="none" stroke="#0a57a7" stroke-linecap="round" stroke-linejoin="round" stroke-miterlimit="10" stroke-width="2"/>
    <path id="Path_14" data-name="Path 14" d="M14.575,40.5,6.3,44.078A2.869,2.869,0,0,0,4.628,46.96l.183,2A2.874,2.874,0,0,0,7.7,51.571l9.03.76m16.855-29.2L37.15,17.66a3.748,3.748,0,0,1,3.877-1.651l7.93,1.563a3.743,3.743,0,0,1,2.882,4.663L49,32.533" transform="translate(3.939 6.47)" fill="none" stroke="#0a57a7" stroke-linecap="round" stroke-linejoin="round" stroke-miterlimit="10" stroke-width="2"/>
    <path id="Path_15" data-name="Path 15" d="M43.78,14.845l3.581-8.27A2.869,2.869,0,0,1,50.242,4.9l2,.183a2.874,2.874,0,0,1,2.611,2.891l.76,9.03" transform="translate(-1.022 7.87)" fill="none" stroke="#0a57a7" stroke-linecap="round" stroke-linejoin="round" stroke-miterlimit="10" stroke-width="2"/>
    <line id="Line_10" data-name="Line 10" x1="5.65" y2="5.414" transform="translate(23.553 27.912)" fill="none" stroke="#0a57a7" stroke-linecap="round" stroke-linejoin="round" stroke-miterlimit="10" stroke-width="2"/>
    <line id="Line_11" data-name="Line 11" x1="11.667" y2="12.637" transform="translate(44.722 46.968)" fill="none" stroke="#0a57a7" stroke-linecap="round" stroke-linejoin="round" stroke-miterlimit="10" stroke-width="2"/>
  </g>
</svg>
